<?xml version="1.0" encoding="utf-8"?>
<!-- Generator: Adobe Illustrator 16.0.0, SVG Export Plug-In . SVG Version: 6.00 Build 0)  -->
<!DOCTYPE svg PUBLIC "-//W3C//DTD SVG 1.1//EN" "http://www.w3.org/Graphics/SVG/1.1/DTD/svg11.dtd">
<svg version="1.1" id="Modo_de_aislamiento" xmlns="http://www.w3.org/2000/svg" xmlns:xlink="http://www.w3.org/1999/xlink"
	 x="0px" y="0px" width="255.999px" height="256px" viewBox="0 0 255.999 256" enable-background="new 0 0 255.999 256"
	 xml:space="preserve">
<path fill="#1A171B" d="M248.985,25.769h-23.779c-2.317,0-4.337,1.553-4.941,3.781l-9.239,34.152H5.12
	c-2.829,0-5.12,2.294-5.12,5.111v98.741c0,2.823,2.291,5.114,5.12,5.114h29.516c0,0,0.009,0.006,0.018,0.006
	c0.007,0,0.009-0.006,0.016-0.006h51.155c0,0,0.009,0.006,0.015,0.006c0,0,0.013-0.006,0.016-0.006h51.152
	c0.015,0,0.015,0.006,0.021,0.006c0.007,0,0.007-0.006,0.007-0.006h44.494l-8.811,32.556h-11.847
	c-2.367-11.484-12.564-20.152-24.744-20.152s-22.374,8.668-24.746,20.152H50.02c-2.376-11.484-12.567-20.152-24.747-20.152
	C11.34,185.071,0,196.411,0,210.35c0,13.933,11.34,25.263,25.272,25.263c12.18,0,22.371-8.659,24.747-20.149h61.361
	c2.372,11.491,12.566,20.149,24.746,20.149s22.377-8.659,24.744-20.149h15.764c2.31,0,4.331-1.547,4.936-3.787l33.106-122.294
	l5.201-19.231l0,0l9.245-34.149h19.862c2.823,0,5.12-2.288,5.12-5.114C254.105,28.063,251.809,25.769,248.985,25.769z
	 M184.293,162.44h-40.577l23.958-88.505h40.577L184.293,162.44z M92.524,162.44l23.958-88.505h40.58l-23.951,88.505H92.524z
	 M41.339,162.44l23.955-88.505h40.58L81.919,162.44H41.339z M10.236,73.936h44.455L30.73,162.44H10.236V73.936z M25.272,225.379
	c-8.29,0-15.036-6.74-15.036-15.03c0-8.296,6.746-15.045,15.036-15.045s15.033,6.749,15.033,15.045
	C40.306,218.64,33.563,225.379,25.272,225.379z M136.127,225.379c-8.287,0-15.033-6.74-15.033-15.03
	c0-8.296,6.746-15.045,15.033-15.045c8.29,0,15.039,6.749,15.039,15.045C151.166,218.64,144.417,225.379,136.127,225.379z"/>
</svg>
