<?xml version="1.0" encoding="utf-8"?>
<!-- Generator: Adobe Illustrator 16.0.0, SVG Export Plug-In . SVG Version: 6.00 Build 0)  -->
<!DOCTYPE svg PUBLIC "-//W3C//DTD SVG 1.1//EN" "http://www.w3.org/Graphics/SVG/1.1/DTD/svg11.dtd">
<svg version="1.1" id="Modo_de_aislamiento" xmlns="http://www.w3.org/2000/svg" xmlns:xlink="http://www.w3.org/1999/xlink"
	 x="0px" y="0px" width="255.999px" height="256px" viewBox="0 0 255.999 256" enable-background="new 0 0 255.999 256"
	 xml:space="preserve">
<g>
	<circle fill="#1A171B" stroke="#000000" stroke-width="2" stroke-miterlimit="10" cx="145.666" cy="224.073" r="3.781"/>
	<path fill="#1A171B" stroke="#000000" stroke-width="2" stroke-miterlimit="10" d="M211.811,168.233
		c-7.081-3.638-15.037-6.89-23.651-9.671c-4.019-1.303-7.391-2.295-10.482-3.082c-4.25-1.263-8.574-2.225-12.908-3.036
		c-3.795-4.074-6.274-8.94-7.477-14.457c9.886-7.777,17.468-19.368,21.602-33.168c1.875-0.15,3.693-0.932,5.336-2.295
		c3.549-2.921,5.999-8.374,6.551-14.557c0.416-4.63-0.331-8.87-1.949-12.202c0.997-4.56,1.573-9.321,1.573-14.297
		c0-33.243-23.823-54.725-60.684-54.725S69.043,28.226,69.043,61.469c0,4.866,0.536,9.531,1.469,14.011
		c-1.714,3.367-2.517,7.722-2.085,12.487c0.551,6.183,2.997,11.625,6.545,14.557c1.647,1.363,3.468,2.145,5.342,2.295
		c4.134,13.815,11.725,25.421,21.626,33.193c-1.252,5.748-3.878,10.798-7.956,14.978c-7.547,1.278-12.191,2.435-12.307,2.475
		c-3.263,0.842-6.636,1.834-10.624,3.117c-8.6,2.781-16.546,6.039-23.612,9.667c-12.707,6.54-20.605,19.363-20.605,33.474v10.177
		c0,9.501,5.151,18.114,13.436,22.489c16.145,8.508,44.753,18.656,89.371,18.656c2.089,0,3.782-1.694,3.782-3.783v-46.572
		c0-2.09-1.693-3.778-3.782-3.778c-2.086,0-3.778,1.688-3.778,3.778v42.738c-43.095-0.606-69.829-11.28-82.071-17.729
		c-5.791-3.063-9.39-9.11-9.39-15.8v-10.177c0-11.26,6.319-21.512,16.496-26.744c6.705-3.453,14.267-6.54,22.479-9.195
		c3.839-1.249,7.076-2.195,10.192-2.997c0.101-0.03,2.146-0.536,5.612-1.217c-6.203,17.052,4.62,34.64,12.267,42.408
		c0.732,0.741,1.71,1.127,2.697,1.127c0.605,0,1.213-0.146,1.773-0.446l23.762-12.633l23.768,12.633
		c0.557,0.3,1.167,0.446,1.77,0.446c0.992,0,1.969-0.386,2.695-1.127c7.687-7.802,18.601-25.536,12.197-42.674
		c1.853,0.451,3.713,0.917,5.547,1.458c3.071,0.796,6.308,1.744,10.177,2.992c8.228,2.656,15.805,5.752,22.524,9.21
		c10.197,5.236,16.531,15.499,16.531,26.779v10.157c0,6.689-3.599,12.737-9.4,15.8c-10.393,5.477-28.443,12.703-55.426,16
		c-2.071,0.255-3.543,2.145-3.293,4.22c0.251,2.064,2.114,3.522,4.214,3.292c28.117-3.443,47.079-11.049,58.032-16.822
		c8.289-4.375,13.435-12.988,13.435-22.489v-10.157C232.451,187.611,224.538,174.772,211.811,168.233z M129.721,14.306
		c32.767,0,53.122,18.07,53.122,47.163c0,2.706-0.235,5.322-0.576,7.893c-0.332-0.125-0.652-0.305-1.002-0.406
		c-3.447-0.937-6.233-0.225-8.098,0.557c-5.582-4.014-7.231-10.162-7.717-13.214c0.431-0.32,0.881-0.592,1.303-0.938
		c1.623-1.317,1.873-3.698,0.561-5.321c-1.323-1.619-3.697-1.874-5.322-0.557C136.962,69.777,95.527,55.15,95.115,55
		c-0.18-0.06-0.361-0.044-0.54-0.085c-0.281-0.05-0.552-0.125-0.834-0.12c-0.239,0.01-0.465,0.075-0.7,0.13
		c-0.241,0.05-0.481,0.08-0.708,0.18c-0.254,0.111-0.465,0.286-0.686,0.451c-0.154,0.105-0.331,0.165-0.471,0.305
		c-0.291,0.281-5.813,5.783-7.888,12.823c-1.508-0.271-3.312-0.29-5.351,0.271c-0.271,0.076-0.512,0.221-0.772,0.316
		c-0.33-2.546-0.561-5.131-0.561-7.803C76.605,32.375,96.96,14.306,129.721,14.306z M86.728,99.663
		c-0.276-1.097-1.203-1.964-2.226-2.445c-1.027-0.48-2.38-0.426-3.406,0.061c-0.442,0.085-1.023-0.336-1.313-0.577
		c-1.483-1.232-3.383-4.435-3.828-9.406c-0.592-6.634,2.024-10.513,3.973-11.049c1.891-0.516,3.192,0.195,4.064,0.671
		c0.521,0.276,0.932,0.451,1.178,0.527c1.147,0.361,2.399,0.14,3.362-0.566c0.972-0.711,1.543-1.849,1.537-3.052
		c-0.009-3.999,2.832-8.349,4.927-10.904c5.136,1.599,17.609,4.966,31.939,4.966c10.334,0,21.598-1.809,31.75-7.246
		c1.368,5.031,4.61,12.082,12.367,16.477c0.911,0.521,1.994,0.641,2.986,0.326c0.241-0.076,0.652-0.251,1.178-0.527
		c0.862-0.476,2.17-1.187,4.063-0.671c1.945,0.536,4.561,4.415,3.969,11.049c-0.44,4.971-2.34,8.173-3.827,9.406
		c-0.291,0.23-0.843,0.616-1.645,0.486c-1.023-0.496-2.21-0.501-3.236-0.02c-1.021,0.481-1.784,1.398-2.064,2.495
		c-3.619,14.271-11.141,26.147-21.167,33.438c-13.229,9.631-30.187,9.631-43.415,0C97.871,125.81,90.351,113.929,86.728,99.663z
		 M105.008,196.581c-4.104-5.006-13.319-18.275-8.961-31.674c6.014,8.568,18.396,17.518,26.078,22.579L105.008,196.581z
		 M129.642,183.326c-13.535-8.463-27.425-19.934-29.335-25.967c3.938-4.299,6.73-9.285,8.368-14.853
		c6.57,3.608,13.699,5.517,20.927,5.517c7.245,0,14.381-1.919,20.961-5.532c1.644,5.592,4.443,10.588,8.407,14.902
		C157.011,163.438,143.151,174.878,129.642,183.326z M154.375,196.595l-17.178-9.14c7.717-5.076,20.145-14.066,26.117-22.65
		C167.859,178.33,158.555,191.574,154.375,196.595z"/>
	<circle fill="#1A171B" stroke="#000000" stroke-width="2" stroke-miterlimit="10" cx="145.666" cy="248.752" r="3.781"/>
</g>
</svg>
