<?xml version="1.0" encoding="utf-8"?>
<!-- Generator: Adobe Illustrator 16.0.0, SVG Export Plug-In . SVG Version: 6.00 Build 0)  -->
<!DOCTYPE svg PUBLIC "-//W3C//DTD SVG 1.1//EN" "http://www.w3.org/Graphics/SVG/1.1/DTD/svg11.dtd">
<svg version="1.1" id="Modo_de_aislamiento" xmlns="http://www.w3.org/2000/svg" xmlns:xlink="http://www.w3.org/1999/xlink"
	 x="0px" y="0px" width="255.999px" height="256px" viewBox="0 0 255.999 256" enable-background="new 0 0 255.999 256"
	 xml:space="preserve">
<path fill-rule="evenodd" clip-rule="evenodd" fill="#B4B516" d="M247.605,98.363c-0.311-0.563-0.659-1.052-1.052-1.449
	c-0.146-0.146-0.373-0.364-0.669-0.635c-1.391-1.537-2.913-2.942-4.639-4.096c-20.311-17.63-90.313-76.454-98.586-83.042
	c-8.557-6.81-16.981-9.486-26.467-2.084c-6.282,4.901-86.062,71.485-102.378,86.25c-5.889,4.576-9.747,11.648-9.747,19.686V232.96
	c0,13.811,6.229,20.04,20.034,20.04h208.272c13.806,0,20.035-6.229,20.035-20.04V112.993
	C252.41,107.51,250.592,102.483,247.605,98.363z M213.533,118.552c-4.727,4.93-72.754,72.982-77.001,77.146
	c-3.806,3.737-12.875,3.8-16.676,0c-5.786-5.783-73.471-73.579-76.826-76.972c-4.183-4.231,1.14-12.379,8.295-12.379h153.958
	C213.17,106.347,217,114.945,213.533,118.552z"/>
</svg>
