<?xml version="1.0" encoding="utf-8"?>
<!-- Generator: Adobe Illustrator 16.0.0, SVG Export Plug-In . SVG Version: 6.00 Build 0)  -->
<!DOCTYPE svg PUBLIC "-//W3C//DTD SVG 1.1//EN" "http://www.w3.org/Graphics/SVG/1.1/DTD/svg11.dtd">
<svg version="1.1" id="Modo_de_aislamiento" xmlns="http://www.w3.org/2000/svg" xmlns:xlink="http://www.w3.org/1999/xlink"
	 x="0px" y="0px" width="255.999px" height="256px" viewBox="0 0 255.999 256" enable-background="new 0 0 255.999 256"
	 xml:space="preserve">
<path fill-rule="evenodd" clip-rule="evenodd" fill="#B4B516" d="M251.636,145.178c-0.509,14.111-10.459,9.41-11.654,8.624
	c0,0-4.608-2.375-8.565-4.605c-3.717-2.093-5.249-5.678-4.569-12.514c0.417-4.121,0.505-8.315,0.353-12.564
	c-1.978-54.142-47.638-96.592-101.779-94.616c-2.792,0.105-5.544,0.316-8.257,0.664c-6.866,0.879-10.573,0.622-14.804-6.577
	c-1.465-2.483-2.85-5.167-3.996-7.235c-1.244-2.255-2.111-3.829-2.111-3.829c1.328-2.745,3.673-5.309,7.831-6.163
	c6.616-1.361,13.428-2.199,20.401-2.454c68.26-2.49,125.815,51.02,128.309,119.283C253.066,130.666,251.891,137.95,251.636,145.178z
	 M191.021,135.051c-3.031-1.356-6.225-3.428-9.163-4.924c-9.029-4.608-6.572-6.236-9.643-14.282
	c-6.752-17.652-21.11-33.269-40.121-34.784c-4.217-0.338-7.854-2.434-9.818-6.175c-2.238-4.26-5.813-9.811-7.625-13.822
	c-1.606-3.561,1.366-4.758,5.594-4.912c41.85-1.528,77.152,31.28,78.67,73.138c0.03,0.698,0.069,1.393,0.045,2.083
	C198.753,138.097,194.777,136.73,191.021,135.051z M129.136,188.784c15.642,4.679,19.476-0.654,23.722-3.847l4.031-4.155l0,0
	c0,0,5.611-6.956,15.685-1.78c8.722,4.476,29.029,21.511,29.029,21.511l11.45,9.466c0,0,14.133,11.601-1.855,26.821
	c0,0-5.305,4.88-14.613,10.673l-1.543,0.903c-29.441,15.36-76.473-10.661-76.473-10.661C16.366,183.082,5.833,105.365,4.814,93.568
	c-0.544-2.823-0.588-5.395-0.651-7.471c-0.46-15.438,10.117-25.22,10.117-25.22l5.627-4.55c20.724-16.307,29.27-1.06,29.27-1.06
	l6.896,9.488c0,0,20.582,26.307,25.748,34.982c3.737,6.283-0.489,11.917-0.489,11.917l-6.077,9.931
	c-6.405,10.076-1.259,19.368-1.259,19.368C93.299,177.513,116.933,185.128,129.136,188.784z"/>
</svg>
